<svg xmlns="http://www.w3.org/2000/svg" viewBox="0 0 411.204 66.28" enable-background="new 0 0 411.204 66.28"><path fill="#E46425" d="M102.177 13.2h9.36v41.58h-9.36V37.14h-15.72v17.64h-9.36V13.2h9.36v15.9h15.72V13.2zM128.877 22.38c2.64 0 4.84.3 6.6.9 1.76.6 3.17 1.46 4.23 2.58 1.06 1.12 1.81 2.48 2.25 4.08.44 1.6.66 3.38.66 5.34v18.6c-1.28.28-3.06.61-5.34.99s-5.04.57-8.28.57c-2.04 0-3.89-.18-5.55-.54-1.66-.36-3.09-.95-4.29-1.77-1.2-.818-2.12-1.89-2.76-3.21-.64-1.32-.96-2.94-.96-4.86 0-1.838.37-3.398 1.11-4.68.74-1.28 1.73-2.3 2.97-3.06 1.24-.758 2.66-1.31 4.26-1.65 1.6-.338 3.26-.51 4.98-.51 1.16 0 2.19.052 3.09.15.9.102 1.63.232 2.19.39v-.84c0-1.52-.46-2.738-1.38-3.66-.92-.918-2.52-1.38-4.8-1.38-1.52 0-3.02.11-4.5.33-1.48.22-2.76.53-3.84.93l-1.14-7.2c.52-.16 1.17-.33 1.95-.51s1.63-.338 2.55-.48c.92-.14 1.89-.26 2.91-.36 1.02-.098 2.05-.15 3.09-.15zm.72 26.16c.88 0 1.72-.02 2.52-.06.8-.04 1.44-.1 1.92-.18v-6.78c-.36-.08-.9-.16-1.62-.24-.72-.08-1.38-.12-1.98-.12-.84 0-1.63.052-2.37.15-.74.102-1.39.292-1.95.57-.56.28-1 .66-1.32 1.14-.32.48-.48 1.08-.48 1.8 0 1.4.47 2.37 1.41 2.91s2.23.81 3.87.81zM146.217 39c0-2.28.37-4.43 1.11-6.45.74-2.02 1.81-3.78 3.21-5.28 1.4-1.5 3.1-2.69 5.1-3.57 2-.878 4.28-1.32 6.84-1.32 1.68 0 3.22.15 4.62.45 1.4.3 2.76.73 4.08 1.29l-1.86 7.14c-.84-.32-1.76-.6-2.76-.84-1-.24-2.12-.36-3.36-.36-2.64 0-4.61.82-5.91 2.46-1.3 1.642-1.95 3.8-1.95 6.48 0 2.84.61 5.04 1.83 6.6 1.22 1.56 3.35 2.34 6.39 2.34 1.08 0 2.24-.1 3.48-.3 1.24-.2 2.38-.518 3.42-.96l1.26 7.32c-1.04.44-2.34.82-3.9 1.14-1.56.32-3.28.48-5.16.48-2.88 0-5.36-.43-7.44-1.29-2.08-.858-3.79-2.028-5.13-3.51-1.34-1.478-2.32-3.228-2.94-5.25-.62-2.018-.93-4.208-.93-6.57zM183.657 34.555c.88-.955 1.788-1.948 2.727-2.982.938-1.034 1.848-2.058 2.727-3.072.88-1.014 1.71-1.978 2.488-2.892.78-.914 1.448-1.71 2.008-2.386h10.63c-2.12 2.436-4.19 4.76-6.21 6.975-2.02 2.215-4.23 4.5-6.63 6.855 1.2 1.082 2.44 2.375 3.72 3.876 1.28 1.503 2.52 3.055 3.72 4.66 1.2 1.602 2.3 3.204 3.3 4.806 1 1.604 1.84 3.066 2.52 4.388h-10.28c-.64-1.042-1.368-2.195-2.187-3.458-.82-1.263-1.688-2.525-2.606-3.79-.92-1.262-1.886-2.475-2.904-3.637s-2.027-2.145-3.024-2.948V54.78h-8.94V9.662l8.94-1.44v26.333zM217.197 22.38c2.64 0 4.84.3 6.6.9 1.76.6 3.17 1.46 4.23 2.58 1.06 1.12 1.81 2.48 2.25 4.08.44 1.6.66 3.38.66 5.34v18.6c-1.28.28-3.06.61-5.34.99s-5.04.57-8.28.57c-2.04 0-3.89-.18-5.55-.54-1.66-.36-3.09-.95-4.29-1.77-1.2-.818-2.12-1.89-2.76-3.21-.64-1.32-.96-2.94-.96-4.86 0-1.838.37-3.398 1.11-4.68.74-1.28 1.73-2.3 2.97-3.06 1.24-.758 2.66-1.31 4.26-1.65 1.6-.338 3.26-.51 4.98-.51 1.16 0 2.19.052 3.09.15.9.102 1.63.232 2.19.39v-.84c0-1.52-.46-2.738-1.38-3.66-.92-.918-2.52-1.38-4.8-1.38-1.52 0-3.02.11-4.5.33-1.48.22-2.76.53-3.84.93l-1.14-7.2c.52-.16 1.17-.33 1.95-.51s1.63-.338 2.55-.48c.92-.14 1.89-.26 2.91-.36 1.02-.098 2.05-.15 3.09-.15zm.72 26.16c.88 0 1.72-.02 2.52-.06.8-.04 1.44-.1 1.92-.18v-6.78c-.36-.08-.9-.16-1.62-.24-.72-.08-1.38-.12-1.98-.12-.84 0-1.63.052-2.37.15-.74.102-1.39.292-1.95.57-.56.28-1 .66-1.32 1.14-.32.48-.48 1.08-.48 1.8 0 1.4.47 2.37 1.41 2.91s2.23.81 3.87.81z"/><path fill="#7D8589" d="M231.836 58.44h19.5v7.44h-19.5v-7.44z"/><path fill="#E46425" d="M267.266 8.22c1.68 0 3.07.142 4.17.42 1.1.28 2.03.582 2.79.9l-1.56 7.02c-.64-.278-1.35-.48-2.13-.6-.78-.12-1.57-.18-2.37-.18-1.08 0-1.99.15-2.73.45-.74.3-1.32.71-1.74 1.23-.42.52-.72 1.14-.9 1.86-.18.72-.27 1.5-.27 2.34v1.56h11.04v7.44h-11.04v24.12h-8.94V21.54c0-4.08 1.15-7.32 3.45-9.72 2.3-2.4 5.71-3.6 10.23-3.6zm21.24 5.88c0 1.642-.53 2.932-1.59 3.87-1.06.94-2.31 1.41-3.75 1.41s-2.69-.47-3.75-1.41c-1.06-.938-1.59-2.228-1.59-3.87 0-1.64.53-2.93 1.59-3.87 1.06-.938 2.31-1.41 3.75-1.41s2.69.472 3.75 1.41c1.06.94 1.59 2.23 1.59 3.87zm-.84 40.68h-8.94V23.22h8.94v31.56zM293.066 24.3c1.52-.44 3.48-.85 5.88-1.23s4.92-.57 7.56-.57c2.68 0 4.91.352 6.69 1.05 1.78.7 3.19 1.69 4.23 2.97 1.04 1.28 1.78 2.8 2.22 4.56.44 1.762.66 3.72.66 5.88v17.82h-8.94V38.04c0-2.88-.38-4.92-1.14-6.12-.76-1.2-2.18-1.8-4.26-1.8-.64 0-1.32.03-2.04.09s-1.36.13-1.92.21v24.36h-8.94V24.3zM353.245 53.76c-.8.24-1.72.472-2.76.69-1.04.22-2.13.41-3.27.57-1.14.16-2.3.29-3.48.39-1.18.1-2.31.15-3.39.15-2.6 0-4.92-.38-6.96-1.14-2.04-.758-3.76-1.85-5.16-3.27-1.402-1.418-2.47-3.14-3.21-5.16-.742-2.02-1.11-4.29-1.11-6.81 0-2.558.318-4.868.96-6.93.638-2.06 1.56-3.81 2.76-5.25 1.2-1.44 2.67-2.54 4.41-3.3 1.738-.758 3.728-1.14 5.97-1.14 1.24 0 2.35.12 3.33.36s1.97.58 2.97 1.02V9.66l8.94-1.44v45.54zm-20.22-15c0 2.76.62 4.98 1.86 6.66 1.238 1.68 3.078 2.52 5.52 2.52.8 0 1.54-.03 2.22-.09.68-.06 1.24-.128 1.68-.21V31.38c-.56-.36-1.29-.66-2.19-.9-.898-.24-1.81-.36-2.73-.36-4.24 0-6.36 2.88-6.36 8.64zM357.146 39.24c0-2.798.428-5.25 1.29-7.35.858-2.1 1.99-3.848 3.39-5.25 1.398-1.398 3.01-2.46 4.83-3.18 1.818-.72 3.69-1.08 5.61-1.08 4.48 0 8.02 1.372 10.62 4.11 2.6 2.74 3.898 6.772 3.898 12.09 0 .522-.02 1.09-.06 1.71-.04.622-.08 1.17-.12 1.65h-20.28c.2 1.84 1.06 3.3 2.58 4.38s3.56 1.62 6.12 1.62c1.64 0 3.25-.15 4.83-.45s2.87-.668 3.87-1.11l1.2 7.26c-.48.24-1.12.48-1.92.72-.8.24-1.69.45-2.67.63s-2.03.33-3.15.45-2.24.18-3.36.18c-2.84 0-5.31-.42-7.41-1.26s-3.84-1.988-5.22-3.45c-1.38-1.458-2.4-3.188-3.06-5.19-.658-1.998-.988-4.158-.988-6.48zm21-3.42c-.04-.758-.172-1.5-.39-2.22-.222-.72-.562-1.358-1.02-1.92-.462-.56-1.042-1.02-1.74-1.38-.702-.36-1.57-.54-2.61-.54-1.002 0-1.86.17-2.58.51-.72.34-1.32.79-1.8 1.35-.48.562-.85 1.21-1.11 1.95-.262.742-.45 1.492-.57 2.25h11.82zM409.704 31.14c-.8-.2-1.738-.41-2.818-.63-1.08-.218-2.242-.33-3.48-.33-.56 0-1.23.052-2.01.15-.78.102-1.37.21-1.77.33v24.12h-8.94V24.9c1.6-.56 3.49-1.088 5.67-1.59 2.18-.5 4.61-.75 7.29-.75.48 0 1.06.03 1.74.09.68.06 1.36.142 2.04.24.68.102 1.36.22 2.04.36.68.142 1.26.31 1.74.51l-1.502 7.38z"/><g fill="#7D8589"><path d="M11.403 61.97C10.938 61.476 0 49.704 0 33.14 0 16.575 10.938 4.804 11.403 4.31l2.642 2.497-1.32-1.248 1.32 1.245c-.103.11-10.41 11.25-10.41 26.335s10.307 26.225 10.41 26.335l-2.642 2.494zM53.717 61.97c-.466-.493-11.404-12.265-11.404-28.83 0-16.564 10.938-28.336 11.404-28.83l2.64 2.497-1.32-1.248 1.323 1.245c-.104.11-10.413 11.25-10.413 26.335S56.255 59.365 56.36 59.475l-2.643 2.494zM12.724 31.323h42.004v3.634H12.724z"/></g><g fill="#5085B6"><circle cx="12.724" cy="5.558" r="5.559"/><circle cx="12.724" cy="33.14" r="5.559"/><circle cx="12.724" cy="60.721" r="5.559"/><circle cx="54.728" cy="5.558" r="5.559"/><circle cx="54.728" cy="33.14" r="5.559"/><circle cx="54.728" cy="60.721" r="5.559"/></g><circle fill="#5085B6" cx="283.148" cy="14.222" r="5.733"/></svg>