<?xml version="1.0" encoding="UTF-8"?>
<!-- Generator: Adobe Illustrator 15.0.2, SVG Export Plug-In . SVG Version: 6.00 Build 0)  -->
<!DOCTYPE svg PUBLIC "-//W3C//DTD SVG 1.1//EN" "http://www.w3.org/Graphics/SVG/1.1/DTD/svg11.dtd">
<svg version="1.1" id="Color__x28_Source_x29_" xmlns="http://www.w3.org/2000/svg" xmlns:xlink="http://www.w3.org/1999/xlink" x="0px" y="0px" viewBox="0 0 340 104.267" enable-background="new 0 0 340 104.267" xml:space="preserve"><link xmlns="" type="text/css" id="dark-mode" rel="stylesheet" href=""/>
<g>
	<g>
		<path fill="#8D9398" d="M51.972,0.934c-8.061,0-16.093,1.924-23.231,5.563c-6.899,3.519-13.013,8.653-17.683,14.852    C4.329,30.282,0.771,40.926,0.771,52.133c0,28.232,22.97,51.199,51.2,51.199c28.232,0,51.199-22.967,51.199-51.199    c0-11.207-3.555-21.851-10.284-30.783c-4.67-6.198-10.786-11.334-17.683-14.853C68.065,2.858,60.034,0.934,51.972,0.934    L51.972,0.934z"/>
	</g>
	<g id="Background_1_">
		<circle fill="#E3EAEE" cx="51.972" cy="52.133" r="42.045"/>
	</g>
	<g id="Red_Zone_1_">
		<path fill="#782F92" d="M73.752,34.671c-5.334-6.642-13.271-10.452-21.78-10.452c-8.508,0-16.445,3.81-21.779,10.452l-1.124,1.4    l-11.277-8.49l1.176-1.49c8.032-10.167,20.063-15.998,33.005-15.998s24.972,5.831,33.004,15.998l1.176,1.487l-11.275,8.494    L73.752,34.671z"/>
		<path fill="#FFFFFF" d="M51.972,11.946c12.793,0,24.191,5.978,31.551,15.294l-8.327,6.272    c-5.455-6.795-13.831-11.145-23.224-11.145c-9.392,0-17.768,4.35-23.224,11.145L20.42,27.24    C27.78,17.924,39.179,11.946,51.972,11.946 M51.972,8.241c-13.513,0-26.072,6.088-34.459,16.703l-2.351,2.974l3.029,2.282    l8.328,6.271l2.869,2.162l2.249-2.801c4.98-6.202,12.392-9.76,20.335-9.76c7.944,0,15.355,3.558,20.335,9.761l2.25,2.8l2.87-2.162    l8.325-6.273l3.028-2.281l-2.35-2.974C78.043,14.329,65.484,8.241,51.972,8.241L51.972,8.241z"/>
	</g>
	<g id="Right_Accent">
		<path fill="#782F92" d="M58.915,42.203l1.478-1.117c7.979-6.031,15.143-11.516,21.9-16.773l0.974-0.759l4.931,6.336l-0.974,0.758    c-6.78,5.274-13.972,10.784-21.989,16.842l-1.478,1.118L58.915,42.203z"/>
		<path fill="#FFFFFF" d="M83.049,25.289l3.415,4.385c-6.773,5.271-13.961,10.777-21.977,16.832l-0.492,0.374l-3.352-4.435    l0.494-0.372C69.127,36.035,76.295,30.544,83.049,25.289 M83.483,21.821l-1.949,1.518c-6.752,5.253-13.911,10.736-21.886,16.762    l-0.493,0.372l-1.971,1.49l1.49,1.97l3.351,4.435l1.489,1.971l1.971-1.491l0.492-0.372c8.024-6.061,15.221-11.574,22.003-16.852    l1.95-1.517l-1.517-1.949L85,23.77L83.483,21.821L83.483,21.821z"/>
	</g>
	<g id="Left_Accent">
		<path fill="#782F92" d="M66.614,68.151c-7.159-5.416-14.484-10.874-21.567-16.155l-0.206-0.153    c-9.33-6.953-18.977-14.143-28.43-21.368l-0.982-0.75l4.874-6.377l0.982,0.75c9.366,7.157,18.986,14.326,28.289,21.262    l0.234,0.173c7.105,5.296,14.454,10.773,21.649,16.214l1.475,1.118l-4.84,6.402L66.614,68.151z"/>
		<path fill="#FFFFFF" d="M20.535,25.08c9.381,7.168,19.015,14.349,28.33,21.292l0.145,0.107c7.123,5.31,14.49,10.8,21.702,16.253    l0.492,0.372l-3.353,4.433l-0.493-0.372c-7.194-5.442-14.556-10.927-21.673-16.231l-0.055-0.041    c-9.342-6.964-19.004-14.164-28.471-21.397L20.535,25.08 M20.072,21.618l-1.5,1.962l-3.375,4.415l-1.499,1.963l1.961,1.499    c9.461,7.231,19.112,14.423,28.446,21.38l0.049,0.036l0.052,0.039l0.103,0.077c7.08,5.277,14.403,10.734,21.557,16.146    l0.496,0.373l1.969,1.487l1.488-1.969l3.353-4.433l1.489-1.968l-1.968-1.49l-0.491-0.373    c-7.198-5.444-14.548-10.921-21.654-16.217L50.486,44.5l-0.147-0.112l-0.024-0.017c-9.301-6.933-18.92-14.102-28.281-21.254    L20.072,21.618L20.072,21.618z"/>
	</g>
	<path fill="#8D9398" d="M19.451,79.334l-2.58-3.469c3.356-2.497,6.715-4.989,10.072-7.483c3.357-2.492,6.714-4.984,10.069-7.48   l2.581,3.47c-3.357,2.496-6.715,4.99-10.073,7.48C26.163,74.346,22.806,76.838,19.451,79.334z"/>
	
		<rect x="40.664" y="22.885" transform="matrix(0.3154 0.949 -0.949 0.3154 81.6746 -2.8685)" fill="#8D9398" width="4.324" height="64.578"/>
	<path fill="#8D9398" d="M75.222,54.301c-20.763-0.081-42.539-0.117-64.725-0.103l-0.003-4.322   c22.193-0.015,43.976,0.022,64.744,0.104L75.222,54.301z"/>
	<path fill="#8D9398" d="M71.797,61.214c-14.444-4.868-29.083-9.933-43.24-14.832c-5.633-1.95-11.267-3.897-16.901-5.84l1.409-4.087   c5.636,1.942,11.271,3.892,16.906,5.843c14.148,4.895,28.781,9.958,43.207,14.821L71.797,61.214z"/>
	<g id="Inner_Major_1_">
		<circle fill="#FFFFFF" cx="51.972" cy="52.133" r="26.606"/>
	</g>
	<g id="Inner_Minor_1_">
		<path fill="#FFFFFF" d="M82.789,35.43c2.697,4.964,4.229,10.656,4.229,16.703c0,19.356-15.69,35.046-35.046,35.046    c-19.355,0-35.046-15.69-35.046-35.046c0-6.047,1.533-11.739,4.23-16.703l30.777,23.984L82.789,35.43z"/>
	</g>
	<g id="Edge_Overlap_1_">
		<path fill="#FFFFFF" d="M51.972,7.647c-24.568,0-44.487,19.918-44.487,44.486S27.403,96.62,51.972,96.62    c24.569,0,44.487-19.918,44.487-44.486S76.541,7.647,51.972,7.647z M51.972,92.321c-22.195,0-40.188-17.993-40.188-40.188    c0-9.067,3.003-17.434,8.07-24.159c7.334-9.734,18.991-16.028,32.118-16.028c13.127,0,24.785,6.294,32.118,16.028    c5.066,6.725,8.07,15.092,8.07,24.159C92.16,74.328,74.167,92.321,51.972,92.321z"/>
	</g>
	<g>
		<polygon id="Needle_3_" fill="#782F92" points="47.495,81.489 53.143,81.938 55.645,26.992 53.759,26.841   "/>
		<polygon fill="#782F92" points="55.856,82.353 44.751,81.452 46.164,77.234 55.141,77.962   "/>
	</g>
	<g id="Needle_Anchor_1_">
		<path fill="#8D9398" d="M51.968,68.843c-4.156-0.003-7.537-3.387-7.535-7.543c0.002-4.154,3.384-7.536,7.537-7.536    c4.162,0.003,7.543,3.388,7.54,7.544c-0.002,4.155-3.383,7.536-7.539,7.536H51.968z"/>
		<path fill="#FFFFFF" d="M51.971,54.999c0.001,0,0.002,0,0.003,0c3.481,0.003,6.304,2.828,6.302,6.308    c-0.002,3.48-2.825,6.302-6.304,6.302c-0.001,0-0.001,0-0.003,0c-3.479-0.002-6.301-2.826-6.3-6.308    C45.671,57.819,48.492,55,51.971,54.999 M51.976,52.529L51.976,52.529h-0.002h-0.003c-4.833,0.001-8.769,3.935-8.772,8.771    c-0.002,4.839,3.932,8.776,8.77,8.779c4.839,0,8.774-3.935,8.777-8.771C60.75,56.472,56.815,52.534,51.976,52.529L51.976,52.529z"/>
	</g>
	<g>
		<path fill="#8D9398" d="M97.729,90.571l-0.484,0.872L97.164,91.4c0.002-0.019,0.003-0.033,0.003-0.044    c0-0.06-0.057-0.126-0.172-0.199c-0.351-0.223-0.762-0.336-1.236-0.336c-0.208,0-0.392,0.024-0.553,0.072    c-0.116,0.036-0.21,0.089-0.282,0.162c-0.072,0.073-0.108,0.151-0.108,0.237c0,0.139,0.092,0.233,0.275,0.283    c0.094,0.025,0.297,0.053,0.61,0.083l0.464,0.043c0.275,0.026,0.5,0.064,0.67,0.111c0.171,0.047,0.321,0.113,0.454,0.198    c0.134,0.086,0.239,0.205,0.318,0.35c0.078,0.145,0.117,0.298,0.117,0.464c0,0.259-0.09,0.49-0.275,0.693    c-0.165,0.185-0.421,0.32-0.771,0.41c-0.26,0.066-0.54,0.099-0.838,0.099c-0.534,0-1.061-0.118-1.582-0.352    c-0.111-0.047-0.176-0.071-0.199-0.071c-0.025,0-0.065,0.021-0.12,0.059l-0.087-0.04l0.438-0.908l0.085,0.038    c0,0.017,0,0.029,0,0.034c0,0.083,0.042,0.157,0.127,0.226c0.129,0.105,0.328,0.196,0.595,0.272    c0.268,0.075,0.522,0.114,0.764,0.114c0.262,0,0.486-0.041,0.671-0.123c0.104-0.044,0.186-0.104,0.246-0.181    c0.062-0.074,0.091-0.152,0.091-0.235c0-0.122-0.072-0.208-0.216-0.262c-0.1-0.036-0.304-0.069-0.609-0.099l-0.455-0.045    c-0.306-0.028-0.521-0.056-0.648-0.082c-0.126-0.026-0.251-0.068-0.378-0.125c-0.18-0.082-0.32-0.205-0.422-0.367    c-0.094-0.148-0.14-0.315-0.14-0.507c0-0.312,0.118-0.57,0.352-0.775c0.308-0.271,0.77-0.406,1.384-0.406    c0.257,0,0.5,0.024,0.723,0.072c0.222,0.048,0.5,0.139,0.833,0.266c0.114,0.042,0.184,0.063,0.21,0.063    c0.041,0,0.09-0.021,0.145-0.063L97.729,90.571z"/>
		<path fill="#8D9398" d="M100.851,93.028l-1.402-1.583v2.232c0,0.055,0.014,0.098,0.038,0.126c0.025,0.029,0.071,0.051,0.135,0.07    v0.084h-1.07v-0.084c0.063-0.019,0.108-0.041,0.133-0.07c0.025-0.028,0.039-0.072,0.039-0.126v-3.08    c0-0.054-0.014-0.095-0.039-0.123c-0.024-0.029-0.069-0.051-0.133-0.07v-0.086h0.943l1.364,1.536l1.397-1.536h0.917v0.086    c-0.063,0.019-0.106,0.041-0.132,0.07c-0.025,0.027-0.037,0.069-0.037,0.123v3.08c0,0.055,0.012,0.098,0.037,0.126    c0.026,0.029,0.07,0.051,0.132,0.07v0.084h-1.134v-0.084c0.063-0.017,0.106-0.04,0.131-0.07c0.026-0.028,0.039-0.072,0.039-0.126    v-2.232L100.851,93.028z"/>
	</g>
</g>
<g>
	<path fill="#782F92" d="M122.253,39.02V27.887c0-0.2-0.042-0.351-0.123-0.454c-0.083-0.102-0.229-0.187-0.439-0.25v-0.309h6.675   c1.46,0,2.584,0.183,3.368,0.55c1.121,0.534,1.953,1.414,2.49,2.641c0.428,0.965,0.642,2.092,0.642,3.384   c0,2.268-0.636,3.998-1.904,5.186c-0.533,0.501-1.155,0.86-1.868,1.076c-0.713,0.214-1.623,0.323-2.728,0.323h-6.675v-0.309   c0.211-0.064,0.357-0.148,0.439-0.25C122.211,39.369,122.253,39.219,122.253,39.02z M124.864,37.864h3.281   c1.047,0,1.833-0.158,2.361-0.473c1.129-0.676,1.693-1.989,1.693-3.943c0-1.415-0.304-2.497-0.912-3.249   c-0.34-0.417-0.749-0.715-1.229-0.893c-0.48-0.175-1.117-0.264-1.914-0.264h-3.281V37.864z"/>
	<path fill="#782F92" d="M149.551,36.678h-5.438l-0.805,1.852c-0.112,0.255-0.166,0.459-0.166,0.606   c0,0.283,0.195,0.479,0.585,0.588v0.309h-3.957v-0.309c0.235-0.05,0.413-0.142,0.534-0.27c0.124-0.129,0.263-0.379,0.421-0.752   l4.4-10.112c0.139-0.321,0.21-0.578,0.21-0.77c0-0.297-0.17-0.509-0.509-0.637v-0.309h4.241v0.309   c-0.345,0.11-0.517,0.299-0.517,0.568c0,0.187,0.056,0.398,0.166,0.637l4.557,10.142c0.195,0.43,0.363,0.724,0.509,0.882   c0.146,0.157,0.341,0.262,0.586,0.313v0.309h-4.402v-0.309c0.387-0.071,0.581-0.27,0.581-0.598c0-0.135-0.059-0.333-0.176-0.596   L149.551,36.678z M148.799,34.875l-1.941-4.687l-1.971,4.687H148.799z"/>
	<path fill="#782F92" d="M164.621,36.207l3.174-7.723c0.135-0.328,0.202-0.581,0.202-0.761c0-0.276-0.192-0.457-0.579-0.54v-0.309   h4.095v0.309c-0.257,0.04-0.436,0.119-0.536,0.242c-0.099,0.122-0.271,0.476-0.517,1.06l-4.148,9.842   c-0.176,0.419-0.263,0.691-0.263,0.82c0,0.328,0.186,0.521,0.554,0.578v0.309h-4.12v-0.309c0.367-0.057,0.551-0.253,0.551-0.588   c0-0.123-0.088-0.391-0.263-0.81l-4.148-9.842c-0.247-0.583-0.418-0.938-0.519-1.06c-0.098-0.123-0.277-0.202-0.534-0.242v-0.309   h4.25v0.309c-0.386,0.083-0.579,0.264-0.579,0.54c0,0.18,0.067,0.434,0.202,0.761L164.621,36.207z"/>
	<path fill="#782F92" d="M177.955,39.02V27.876c0-0.193-0.042-0.34-0.124-0.444c-0.081-0.102-0.227-0.187-0.438-0.25v-0.309h3.733   v0.309c-0.211,0.058-0.357,0.141-0.438,0.246c-0.083,0.105-0.124,0.255-0.124,0.448V39.02c0,0.2,0.043,0.352,0.127,0.459   c0.084,0.104,0.229,0.188,0.434,0.245v0.309h-3.733v-0.309c0.21-0.064,0.356-0.148,0.438-0.25   C177.913,39.369,177.955,39.219,177.955,39.02z"/>
	<path fill="#782F92" d="M188.698,39.02V27.887c0-0.2-0.042-0.351-0.122-0.454c-0.082-0.102-0.229-0.187-0.439-0.25v-0.309h6.674   c1.461,0,2.585,0.183,3.368,0.55c1.122,0.534,1.952,1.414,2.49,2.641c0.427,0.965,0.64,2.092,0.64,3.384   c0,2.268-0.634,3.998-1.902,5.186c-0.533,0.501-1.155,0.86-1.868,1.076c-0.713,0.214-1.623,0.323-2.727,0.323h-6.674v-0.309   c0.21-0.064,0.357-0.148,0.439-0.25C188.657,39.369,188.698,39.219,188.698,39.02z M191.31,37.864h3.281   c1.047,0,1.834-0.158,2.361-0.473c1.128-0.676,1.693-1.989,1.693-3.943c0-1.415-0.304-2.497-0.913-3.249   c-0.339-0.417-0.749-0.715-1.228-0.893c-0.48-0.175-1.118-0.264-1.914-0.264h-3.281V37.864z"/>
	<path d="M130.363,52.824v18.101c0,0.362,0.082,0.636,0.246,0.822c0.163,0.187,0.454,0.339,0.874,0.455v0.559h-7.449v-0.559   c0.42-0.116,0.71-0.268,0.872-0.455c0.165-0.186,0.246-0.459,0.246-0.822V52.824h-7.415c-0.349,0-0.617,0.08-0.804,0.239   c-0.187,0.162-0.338,0.455-0.455,0.88h-0.56v-6.174h0.56c0.128,0.426,0.283,0.718,0.463,0.879s0.446,0.241,0.795,0.241h20.025   c0.36,0,0.636-0.08,0.821-0.241c0.187-0.161,0.337-0.454,0.455-0.879h0.56v6.174h-0.56c-0.117-0.426-0.268-0.719-0.455-0.88   c-0.186-0.159-0.461-0.239-0.821-0.239H130.363z"/>
	<path d="M148.468,70.924V50.708c0-0.349-0.082-0.618-0.245-0.804c-0.164-0.186-0.455-0.337-0.874-0.456V48.89h7.449v0.558   c-0.42,0.106-0.71,0.254-0.874,0.447c-0.164,0.192-0.245,0.464-0.245,0.813v20.217c0,0.362,0.084,0.638,0.254,0.83   c0.168,0.193,0.457,0.342,0.865,0.447v0.559h-7.449v-0.559c0.418-0.116,0.709-0.268,0.874-0.455   C148.386,71.56,148.468,71.287,148.468,70.924z"/>
	<path d="M179.154,72.76l-8.806-16.491v14.655c0,0.362,0.082,0.636,0.245,0.822c0.163,0.187,0.454,0.339,0.874,0.455v0.559h-7.012   v-0.559c0.42-0.116,0.711-0.268,0.874-0.455c0.164-0.186,0.246-0.459,0.246-0.822V50.708c0-0.349-0.082-0.618-0.246-0.804   c-0.163-0.186-0.454-0.337-0.874-0.456V48.89h9.202v0.558c-0.549,0.141-0.822,0.462-0.822,0.963c0,0.233,0.081,0.501,0.245,0.805   l6.511,12.339l6.6-12.13c0.291-0.536,0.437-0.926,0.437-1.172c0-0.477-0.292-0.745-0.875-0.805V48.89h9.025v0.558   c-0.419,0.118-0.709,0.27-0.874,0.456c-0.163,0.186-0.244,0.456-0.244,0.804v20.217c0,0.362,0.081,0.636,0.244,0.822   c0.164,0.187,0.455,0.339,0.874,0.455v0.559h-7.448v-0.559c0.408-0.105,0.696-0.254,0.866-0.447   c0.167-0.191,0.251-0.467,0.251-0.83V56.269L179.154,72.76z"/>
	<path d="M219.136,72.76l-8.806-16.491v14.655c0,0.362,0.082,0.636,0.244,0.822c0.164,0.187,0.455,0.339,0.875,0.455v0.559h-7.012   v-0.559c0.42-0.116,0.712-0.268,0.874-0.455c0.164-0.186,0.246-0.459,0.246-0.822V50.708c0-0.349-0.082-0.618-0.246-0.804   c-0.162-0.186-0.454-0.337-0.874-0.456V48.89h9.201v0.558c-0.547,0.141-0.821,0.462-0.821,0.963c0,0.233,0.081,0.501,0.245,0.805   l6.511,12.339l6.6-12.13c0.292-0.536,0.438-0.926,0.438-1.172c0-0.477-0.291-0.745-0.873-0.805V48.89h9.025v0.558   c-0.42,0.118-0.711,0.27-0.874,0.456c-0.164,0.186-0.245,0.456-0.245,0.804v20.217c0,0.362,0.081,0.636,0.245,0.822   c0.162,0.187,0.454,0.339,0.874,0.455v0.559h-7.451v-0.559c0.409-0.105,0.698-0.254,0.866-0.447   c0.169-0.191,0.253-0.467,0.253-0.83V56.269L219.136,72.76z"/>
	<path d="M257.543,48.47c4.165,0,7.466,1.125,9.904,3.374c2.578,2.355,3.867,5.398,3.867,9.129c0,2.284-0.618,4.417-1.855,6.401   c-2.415,3.87-6.375,5.806-11.882,5.806c-4.129,0-7.413-1.125-9.852-3.375c-1.306-1.201-2.298-2.641-2.974-4.319   c-0.595-1.481-0.893-3.039-0.893-4.67c0-2.389,0.613-4.576,1.839-6.559C248.04,50.468,251.989,48.539,257.543,48.47z    M257.56,52.525c-2.276,0-4.172,0.676-5.688,2.028c-1.798,1.595-2.697,3.685-2.697,6.271c0,2.585,0.898,4.676,2.697,6.272   c1.517,1.349,3.424,2.024,5.724,2.024c2.299,0,4.201-0.676,5.706-2.024c0.9-0.804,1.587-1.789,2.065-2.954   c0.421-1.037,0.631-2.108,0.631-3.213c0-2.702-0.899-4.829-2.697-6.377C261.773,53.226,259.859,52.551,257.56,52.525z"/>
	<path d="M286.323,56.409v14.516c0,0.362,0.082,0.636,0.245,0.822c0.163,0.187,0.454,0.339,0.874,0.455v0.559h-7.014v-0.559   c0.42-0.116,0.711-0.268,0.875-0.455c0.164-0.186,0.245-0.459,0.245-0.822V50.708c0-0.349-0.081-0.618-0.245-0.804   c-0.165-0.186-0.456-0.337-0.875-0.456V48.89h8.115v0.558c-0.501,0.129-0.752,0.397-0.752,0.805c0,0.281,0.165,0.59,0.489,0.928   l13.168,13.692V50.708c0-0.349-0.08-0.618-0.243-0.804c-0.164-0.186-0.456-0.337-0.876-0.456V48.89h7.014v0.558   c-0.42,0.118-0.711,0.27-0.874,0.456c-0.164,0.186-0.245,0.456-0.245,0.804v20.217c0,0.362,0.081,0.636,0.245,0.822   c0.162,0.187,0.454,0.339,0.874,0.455v0.559h-7.52v-0.559c0.489-0.105,0.734-0.356,0.734-0.752c0-0.233-0.286-0.641-0.857-1.225   L286.323,56.409z"/>
	<path d="M339.229,50.911l-2.852,5.621l-0.489-0.279c0.011-0.117,0.018-0.211,0.018-0.28c0-0.397-0.338-0.822-1.015-1.276   c-2.075-1.447-4.513-2.17-7.31-2.17c-1.235,0-2.326,0.152-3.27,0.455c-0.688,0.234-1.245,0.583-1.671,1.049   c-0.425,0.466-0.637,0.972-0.637,1.521c0,0.896,0.542,1.508,1.626,1.834c0.56,0.164,1.76,0.337,3.603,0.524l2.745,0.279   c1.633,0.176,2.952,0.414,3.961,0.716c1.009,0.304,1.903,0.73,2.686,1.278c0.793,0.57,1.418,1.321,1.879,2.253   c0.461,0.933,0.692,1.928,0.692,2.988c0,1.679-0.544,3.169-1.627,4.474c-0.98,1.188-2.502,2.068-4.566,2.638   c-1.539,0.431-3.188,0.646-4.949,0.646c-3.158,0-6.278-0.758-9.354-2.273c-0.654-0.304-1.045-0.456-1.174-0.456   c-0.15,0-0.39,0.129-0.716,0.385l-0.507-0.263l2.589-5.859l0.506,0.246c0,0.105,0,0.18,0,0.227c0,0.525,0.25,1.009,0.752,1.451   c0.758,0.676,1.93,1.261,3.516,1.75c1.585,0.49,3.089,0.733,4.512,0.733c1.55,0,2.874-0.261,3.97-0.784   c0.607-0.291,1.089-0.679,1.451-1.161s0.543-0.986,0.543-1.51c0-0.791-0.427-1.355-1.277-1.694   c-0.595-0.232-1.795-0.447-3.603-0.646l-2.694-0.278c-1.806-0.188-3.083-0.365-3.828-0.535c-0.747-0.168-1.495-0.44-2.24-0.813   c-1.061-0.524-1.895-1.313-2.501-2.363c-0.548-0.945-0.822-2.03-0.822-3.255c0-2.018,0.694-3.688,2.081-5.006   c1.818-1.739,4.548-2.607,8.185-2.607c1.526,0,2.95,0.154,4.267,0.464c1.319,0.311,2.962,0.881,4.932,1.713   c0.676,0.268,1.09,0.404,1.242,0.404c0.245,0,0.53-0.136,0.856-0.404L339.229,50.911z"/>
</g>
</svg>