<?xml version="1.0" encoding="UTF-8"?>
<!-- Generator: Adobe Illustrator 15.0.2, SVG Export Plug-In . SVG Version: 6.00 Build 0)  -->
<!DOCTYPE svg PUBLIC "-//W3C//DTD SVG 1.1//EN" "http://www.w3.org/Graphics/SVG/1.1/DTD/svg11.dtd">
<svg version="1.1" id="Layer_1" xmlns="http://www.w3.org/2000/svg" xmlns:xlink="http://www.w3.org/1999/xlink" x="0px" y="0px" viewBox="0 0 65 63.395" enable-background="new 0 0 65 63.395" xml:space="preserve"><link xmlns="" type="text/css" id="dark-mode" rel="stylesheet" href=""/>
<path fill-rule="evenodd" clip-rule="evenodd" fill="#191717" d="M32.498,0C14.553,0,0,14.55,0,32.502  c0,14.357,9.312,26.539,22.228,30.837c1.625,0.298,2.218-0.705,2.218-1.566c0-0.771-0.028-2.815-0.044-5.528  c-9.04,1.964-10.947-4.356-10.947-4.356c-1.479-3.754-3.608-4.754-3.608-4.754c-2.951-2.017,0.223-1.976,0.223-1.976  c3.262,0.23,4.979,3.349,4.979,3.349c2.899,4.966,7.606,3.532,9.458,2.701c0.295-2.101,1.135-3.533,2.063-4.345  c-7.217-0.82-14.804-3.608-14.804-16.063c0-3.548,1.267-6.449,3.346-8.721c-0.335-0.822-1.45-4.127,0.318-8.601  c0,0,2.729-0.874,8.938,3.332c2.592-0.721,5.372-1.082,8.136-1.094c2.76,0.012,5.54,0.373,8.137,1.094  c6.205-4.206,8.929-3.332,8.929-3.332c1.772,4.474,0.657,7.779,0.323,8.601c2.083,2.271,3.341,5.173,3.341,8.721  c0,12.485-7.599,15.232-14.839,16.037c1.167,1.003,2.206,2.987,2.206,6.019c0,4.345-0.04,7.85-0.04,8.916  c0,0.869,0.586,1.88,2.235,1.563C55.696,59.029,65,46.855,65,32.502C65,14.55,50.448,0,32.498,0z"/>
</svg>