<?xml version="1.0" encoding="UTF-8"?>
<!-- Generator: Adobe Illustrator 15.0.2, SVG Export Plug-In . SVG Version: 6.00 Build 0)  -->
<!DOCTYPE svg PUBLIC "-//W3C//DTD SVG 1.1//EN" "http://www.w3.org/Graphics/SVG/1.1/DTD/svg11.dtd">
<svg version="1.1" id="Layer_1" xmlns="http://www.w3.org/2000/svg" xmlns:xlink="http://www.w3.org/1999/xlink" x="0px" y="0px" viewBox="0 0 72.296 64" enable-background="new 0 0 72.296 64" xml:space="preserve"><link xmlns="" type="text/css" id="dark-mode" rel="stylesheet" href=""/>
<g>
	<g>
		<g>
			<path fill="#007BB6" d="M59.259,0H4.725C2.117,0,0,2.067,0,4.611v54.771C0,61.931,2.117,64,4.725,64h54.535     C61.87,64,64,61.931,64,59.382V4.611C64,2.067,61.87,0,59.259,0z"/>
			<path fill="#FFFFFF" d="M9.484,23.996h9.497v30.542H9.484V23.996z M14.233,8.812c3.035,0,5.501,2.466,5.501,5.502     c0,3.04-2.466,5.506-5.501,5.506c-3.043,0-5.502-2.466-5.502-5.506C8.731,11.278,11.19,8.812,14.233,8.812"/>
			<path fill="#FFFFFF" d="M24.935,23.996h9.106v4.171h0.13c1.267-2.4,4.365-4.933,8.983-4.933c9.605,0,11.379,6.324,11.379,14.551     v16.752h-9.481V39.686c0-3.544-0.069-8.1-4.934-8.1c-4.94,0-5.693,3.859-5.693,7.843v15.108h-9.49V23.996z"/>
		</g>
	</g>
	<g>
		<polygon points="66.051,51.694 66.963,51.694 66.963,54.537 67.458,54.537 67.458,51.694 68.369,51.694 68.369,51.199     66.051,51.199   "/>
		<polygon points="71.59,51.199 70.618,53.648 69.645,51.199 68.939,51.199 68.939,54.537 69.432,54.537 69.432,51.998     70.453,54.537 70.783,54.537 71.803,51.998 71.803,54.537 72.296,54.537 72.296,51.199   "/>
	</g>
</g>
</svg>